<?xml version="1.0" standalone="no"?>
<!DOCTYPE svg PUBLIC "-//W3C//DTD SVG 20010904//EN"
 "http://www.w3.org/TR/2001/REC-SVG-20010904/DTD/svg10.dtd">
<svg version="1.0" xmlns="http://www.w3.org/2000/svg"
 width="300.000000pt" height="300.000000pt" viewBox="0 0 300.000000 300.000000"
 preserveAspectRatio="xMidYMid meet">
<metadata>
Created by potrace 1.10, written by Peter Selinger 2001-2011
</metadata>
<g transform="translate(0.000000,300.000000) scale(0.100000,-0.100000)"
fill="#000000" stroke="none">
<path d="M1243 2959 c-180 -38 -316 -95 -473 -200 -94 -63 -262 -221 -296
-278 -10 -17 -21 -31 -24 -31 -3 1 -16 23 -30 51 -24 50 -52 75 -70 64 -5 -3
-29 -38 -52 -78 -57 -98 -119 -161 -209 -213 -78 -45 -97 -67 -79 -89 5 -6 47
-35 92 -62 46 -28 96 -65 111 -81 l29 -30 -16 -93 c-20 -117 -21 -330 -1 -442
60 -344 259 -656 536 -840 l77 -50 -31 -21 c-59 -40 -97 -118 -97 -198 0 -31
-4 -38 -19 -38 -29 0 -102 -34 -139 -65 -45 -37 -79 -99 -91 -165 -7 -41 -7
-58 3 -68 18 -18 2056 -18 2068 0 11 18 0 83 -24 140 -32 75 -139 157 -205
158 -20 0 -23 5 -23 43 0 71 -27 132 -76 176 l-45 39 71 47 c207 138 394 382
484 633 93 261 93 594 0 854 -66 183 -168 343 -309 483 -189 190 -406 305
-667 356 -135 26 -366 25 -495 -2z m450 -64 c340 -59 639 -256 824 -542 129
-201 193 -418 193 -657 0 -414 -201 -787 -545 -1014 l-108 -72 -554 0 -554 0
-47 24 c-125 63 -321 242 -410 374 -151 221 -220 470 -208 750 3 79 8 148 12
153 3 6 15 -8 25 -30 14 -32 24 -41 42 -41 20 0 33 15 73 86 55 98 108 151
212 209 67 37 91 63 78 83 -3 5 -40 29 -83 54 -43 25 -93 62 -112 81 l-34 36
36 48 c49 66 189 200 267 255 135 95 329 175 491 202 113 19 297 19 402 1z
m-1266 -536 c27 -36 69 -76 112 -106 39 -26 70 -51 71 -54 0 -3 -16 -13 -36
-22 -50 -24 -131 -102 -175 -170 l-37 -57 -30 52 c-34 61 -124 150 -176 175
-20 9 -36 20 -36 23 0 3 28 24 61 46 61 39 135 119 166 178 15 28 17 29 27 12
6 -10 30 -45 53 -77z m-110 -399 c13 -16 33 -30 44 -30 20 0 26 -15 9 -25 -6
-3 -22 3 -36 14 -20 16 -31 18 -45 10 -16 -8 -19 -6 -19 10 0 22 10 51 17 51
2 0 16 -13 30 -30z m1803 -1442 c53 -28 81 -72 83 -133 l2 -45 -710 0 -709 0
3 42 c4 64 31 109 81 135 l43 23 581 0 582 0 44 -22z m231 -281 c43 -23 91
-80 104 -124 l6 -23 -965 0 c-531 0 -966 2 -966 4 0 2 6 19 14 38 18 41 59 84
106 109 33 17 75 18 846 19 l811 0 44 -23z"/>
<path d="M1464 2747 c-3 -9 -4 -24 -2 -34 3 -15 21 -20 118 -31 247 -27 445
-119 607 -284 157 -158 246 -332 278 -546 8 -53 16 -115 17 -137 3 -37 5 -40
33 -40 l30 0 3 66 c2 40 -6 108 -18 169 -96 470 -494 818 -967 847 -79 5 -93
4 -99 -10z"/>
<path d="M907 2403 c-4 -3 -7 -24 -7 -45 0 -38 -1 -39 -29 -33 -20 4 -34 1
-45 -10 -32 -33 -12 -65 41 -65 31 0 33 -2 33 -35 0 -39 24 -59 52 -44 12 6
18 21 18 44 0 33 2 35 34 35 39 0 60 20 51 50 -6 20 -20 25 -62 21 -19 -1 -23
3 -23 28 0 16 -3 36 -6 45 -6 16 -45 22 -57 9z m37 -89 c21 -8 21 -43 0 -51
-8 -3 -23 1 -31 10 -13 13 -14 19 -3 31 14 18 13 18 34 10z"/>
<path d="M858 1973 c-8 -10 -26 -38 -40 -63 -33 -56 -88 -110 -152 -147 -86
-50 -85 -69 7 -122 62 -35 115 -88 154 -155 50 -86 69 -85 122 7 35 62 88 115
155 154 86 50 85 69 -7 121 -61 35 -127 103 -158 164 -31 62 -53 73 -81 41z
m149 -234 l52 -36 -32 -18 c-46 -26 -95 -74 -119 -117 l-21 -37 -27 42 c-26
41 -72 87 -120 118 l-24 16 40 25 c44 28 100 87 116 124 11 23 12 22 47 -29
20 -28 60 -68 88 -88z"/>
<path d="M2661 806 c-45 -80 -86 -122 -163 -167 -88 -52 -88 -67 2 -121 86
-52 105 -71 151 -149 57 -99 70 -98 133 8 41 69 75 101 152 145 84 47 82 68
-8 119 -69 39 -115 86 -159 164 -42 75 -66 75 -108 1z m101 -123 c13 -17 44
-46 70 -65 26 -18 47 -36 48 -40 0 -4 -12 -14 -27 -22 -33 -17 -106 -91 -123
-126 -13 -23 -14 -24 -24 -5 -20 34 -100 116 -128 131 -35 18 -35 26 0 46 38
23 101 87 119 122 15 29 16 29 29 10 7 -10 23 -33 36 -51z"/>
<path d="M487 679 c-11 -7 -17 -22 -17 -44 0 -33 -2 -35 -33 -35 -53 0 -73
-32 -41 -65 11 -11 25 -14 45 -10 27 6 28 5 31 -37 3 -40 5 -43 33 -43 28 0
30 3 33 43 3 42 4 43 31 37 20 -4 34 -1 45 10 32 33 12 65 -41 65 -31 0 -33 2
-33 35 0 39 -24 60 -53 44z m43 -104 c10 -12 10 -18 0 -30 -17 -20 -37 -19
-49 3 -18 34 24 57 49 27z"/>
</g>
</svg>
