<?xml version="1.0" standalone="no"?>
<!DOCTYPE svg PUBLIC "-//W3C//DTD SVG 20010904//EN"
 "http://www.w3.org/TR/2001/REC-SVG-20010904/DTD/svg10.dtd">
<svg version="1.0" xmlns="http://www.w3.org/2000/svg"
 width="667.000000pt" height="667.000000pt" viewBox="0 0 667.000000 667.000000"
 preserveAspectRatio="xMidYMid meet">

<g transform="translate(0.000000,667.000000) scale(0.100000,-0.100000)"
fill="#000000" stroke="none">
<path d="M3724 4180 c-90 -18 -158 -67 -227 -161 -22 -31 -34 -37 -76 -43 -53
-7 -111 -45 -111 -73 0 -18 -14 -15 -105 17 -83 30 -247 26 -316 -8 -56 -27
-180 -146 -198 -189 -13 -31 -16 -33 -64 -33 -61 0 -126 -34 -156 -83 -11 -18
-41 -48 -67 -66 -46 -33 -94 -112 -94 -154 0 -39 51 -127 83 -144 34 -17 271
-37 377 -31 l55 3 5 90 c4 72 9 96 28 122 28 39 28 54 -1 81 -30 28 -82 29
-97 3 -15 -28 -12 -63 6 -90 11 -15 17 -46 18 -92 l1 -70 -174 0 c-139 0 -178
4 -197 16 -38 25 -58 63 -58 114 0 59 28 101 82 125 28 13 45 30 60 61 31 64
59 79 132 72 l60 -7 31 56 c44 77 113 145 184 180 54 26 69 29 155 28 76 0
106 -5 150 -23 106 -45 108 -45 130 -1 26 50 51 64 105 56 l42 -7 43 67 c48
74 103 116 188 140 125 37 276 -41 332 -169 10 -23 21 -80 25 -127 6 -67 12
-90 29 -108 11 -13 26 -39 31 -57 8 -29 21 -40 75 -67 54 -27 69 -41 88 -78
37 -74 27 -157 -26 -213 -48 -51 -67 -56 -233 -58 l-154 -2 0 184 c0 177 1
185 23 207 61 61 -15 146 -86 96 -27 -19 -27 -33 -3 -87 15 -34 20 -78 26
-239 l7 -198 167 0 c139 0 173 3 206 19 83 37 142 139 133 231 -7 66 -44 121
-115 166 -32 20 -59 40 -61 44 -2 5 -17 30 -35 56 -26 39 -33 62 -38 124 -9
106 -39 168 -111 235 -43 40 -73 59 -111 69 -75 22 -117 26 -163 16z m164
-482 c-2 -15 -10 -23 -23 -23 -13 0 -21 8 -23 23 -3 18 1 22 23 22 22 0 26 -4
23 -22z m-1053 -223 c0 -23 -34 -33 -46 -14 -10 17 9 41 30 37 9 -2 16 -12 16
-23z"/>
<path d="M3533 3849 c-25 -9 -43 -38 -43 -69 0 -11 -21 -43 -46 -70 l-47 -50
8 -203 c4 -111 10 -208 14 -215 10 -17 21 109 21 237 1 170 23 220 104 242 72
19 94 58 61 106 -17 25 -43 33 -72 22z m45 -61 c3 -13 -3 -18 -22 -18 -20 0
-26 5 -26 21 0 15 5 20 22 17 13 -2 24 -11 26 -20z"/>
<path d="M2998 3760 c-9 -6 -19 -23 -23 -39 -3 -16 -25 -50 -47 -76 l-41 -46
7 -252 c7 -228 13 -286 29 -260 3 5 9 120 13 257 7 242 8 249 31 277 14 16 39
31 59 35 37 7 54 28 54 68 0 38 -45 57 -82 36z"/>
<path d="M3265 3684 c-32 -33 -37 -54 -19 -82 15 -22 19 -63 25 -257 7 -230
16 -302 30 -240 4 17 7 122 8 235 1 180 4 210 21 248 15 34 17 48 9 66 -16 34
-54 50 -74 30z"/>
<path d="M3646 3675 c-33 -34 -5 -85 47 -85 45 0 51 -27 54 -245 2 -110 6
-216 9 -235 12 -67 21 -1 29 190 7 197 4 224 -39 325 -21 52 -29 60 -54 63
-17 2 -36 -4 -46 -13z"/>
<path d="M3046 3624 c-21 -21 -20 -77 2 -97 9 -8 34 -18 55 -22 25 -5 37 -13
37 -24 0 -9 5 -83 10 -164 10 -152 18 -192 31 -147 11 38 9 259 -1 308 -6 23
-14 61 -19 84 -14 67 -77 101 -115 62z m63 -38 c9 -10 8 -16 -4 -26 -17 -14
-45 -7 -45 13 0 29 30 37 49 13z"/>
<path d="M3490 3545 l-24 -26 19 -32 c16 -27 20 -59 25 -214 3 -100 8 -185 13
-189 17 -17 22 18 27 189 4 154 8 187 24 213 18 30 18 32 1 57 -22 34 -54 35
-85 2z"/>
<path d="M3616 3455 c-33 -30 -33 -52 -1 -95 17 -24 25 -47 25 -76 0 -23 3
-50 6 -59 10 -26 24 2 24 50 0 25 10 55 25 80 13 22 25 48 25 58 0 20 -46 67
-65 67 -7 0 -24 -11 -39 -25z m62 -38 c4 -20 -25 -34 -40 -19 -15 15 -1 44 19
40 10 -2 19 -11 21 -21z"/>
<path d="M3007 3452 c-21 -23 -21 -60 -2 -86 8 -10 17 -45 21 -78 4 -32 10
-61 14 -63 4 -3 11 26 15 63 5 47 13 73 26 85 22 20 18 49 -9 80 -20 22 -45
22 -65 -1z"/>
<path d="M1975 3047 c-119 -55 -166 -198 -102 -312 35 -62 95 -98 171 -103 80
-5 126 10 174 56 35 34 36 36 15 40 -13 2 -37 -7 -55 -21 -73 -55 -163 -55
-228 -1 -43 37 -60 75 -60 135 0 157 171 235 292 134 16 -14 38 -25 49 -25 34
0 2 45 -53 75 -60 33 -156 43 -203 22z"/>
<path d="M3467 3053 c-3 -4 -8 -38 -12 -75 -4 -38 -10 -68 -14 -68 -4 0 -18 8
-31 17 -35 25 -127 22 -171 -3 -19 -11 -44 -36 -57 -55 -21 -29 -23 -42 -18
-89 8 -70 31 -108 81 -134 50 -26 99 -26 154 -1 41 18 44 18 56 2 27 -37 35
-18 36 81 3 253 -5 357 -24 325z m-55 -182 c37 -41 44 -76 27 -124 -19 -54
-59 -82 -113 -81 -104 2 -157 105 -100 192 39 59 139 66 186 13z"/>
<path d="M3544 3048 c-4 -5 20 -101 52 -214 57 -197 60 -204 84 -204 15 0 31
5 38 12 6 6 23 62 38 125 14 62 29 113 33 113 4 0 19 -48 35 -107 16 -60 33
-116 38 -125 13 -27 46 -22 62 10 14 27 116 365 116 383 0 5 -16 9 -35 9 -42
0 -38 7 -80 -155 -36 -136 -32 -138 -75 33 -24 95 -37 122 -62 122 -24 0 -33
-20 -63 -141 -15 -57 -30 -108 -34 -112 -4 -4 -23 49 -41 118 -18 69 -38 129
-44 133 -17 10 -56 10 -62 0z"/>
<path d="M4101 3049 c-16 -6 -21 -15 -19 -31 2 -19 10 -24 41 -26 35 -3 37 -2
37 26 0 33 -21 44 -59 31z"/>
<path d="M2325 3017 c-9 -46 -2 -374 8 -383 20 -20 27 33 27 203 0 100 -3 188
-6 197 -10 26 -23 18 -29 -17z"/>
<path d="M4590 2948 c-140 -39 -172 -212 -53 -293 52 -35 129 -35 190 0 55 33
60 65 9 65 -19 0 -38 -4 -41 -10 -9 -15 -108 -12 -131 4 -10 8 -16 18 -11 22
4 4 59 10 122 12 l115 5 0 39 c0 101 -105 183 -200 156z m98 -84 c34 -24 17
-34 -58 -34 -38 0 -71 4 -75 9 -9 16 37 41 75 41 20 0 46 -7 58 -16z"/>
<path d="M2540 2940 c-44 -11 -97 -68 -106 -114 -13 -72 23 -157 79 -184 33
-16 128 -18 155 -3 73 39 106 164 60 230 -45 66 -110 91 -188 71z m132 -69
c72 -81 25 -207 -76 -205 -100 2 -156 98 -105 180 44 71 129 83 181 25z"/>
<path d="M2820 2848 c0 -161 18 -201 100 -219 33 -8 50 -6 86 10 38 17 46 18
51 6 3 -8 11 -15 18 -15 10 0 14 22 17 76 4 105 -5 234 -17 234 -5 1 -14 -43
-18 -97 -10 -125 -28 -165 -80 -177 -43 -11 -60 -4 -91 37 -14 20 -22 53 -29
137 -7 81 -13 110 -23 110 -11 0 -14 -23 -14 -102z"/>
<path d="M4080 2790 l0 -160 40 0 40 0 0 160 0 160 -40 0 -40 0 0 -160z"/>
<path d="M4241 2924 c-14 -18 -21 -41 -21 -70 0 -39 4 -46 37 -69 21 -14 43
-25 49 -25 17 0 47 -37 39 -49 -9 -16 -31 -13 -70 8 -73 39 -96 -3 -34 -61 57
-54 159 -29 181 44 15 50 -11 94 -69 117 -55 21 -71 37 -55 53 9 9 18 9 37 0
14 -7 37 -12 50 -12 20 0 25 5 25 24 0 38 -43 66 -101 66 -39 0 -51 -4 -68
-26z"/>
</g>
</svg>
